<?xml version="1.0" encoding="UTF-8" standalone="no"?>
<!DOCTYPE svg PUBLIC "-//W3C//DTD SVG 1.1//EN" "http://www.w3.org/Graphics/SVG/1.1/DTD/svg11.dtd">
<svg width="100%" height="100%" viewBox="0 0 570 591" version="1.1" xmlns="http://www.w3.org/2000/svg" xmlns:xlink="http://www.w3.org/1999/xlink" xml:space="preserve" xmlns:serif="http://www.serif.com/" style="fill-rule:evenodd;clip-rule:evenodd;stroke-linejoin:round;stroke-miterlimit:1.41421;">
    <g transform="matrix(1,0,0,1,-55.1914,-43.568)">
        <g transform="matrix(0.841977,0,0,0.841977,-366.8,-406.946)">
            <g transform="matrix(1.08355,0,0,1.08355,658.523,113.476)">
                <g transform="matrix(-1.28113,2.71193,-2.22366,-1.56244,2928.26,-1267.21)">
                    <path d="M1042.73,642.135C1042.73,642.135 1030.24,666.175 1028.64,676.4C1027.82,681.629 1025.02,697.183 1035.33,698.325C1038.25,698.647 1040.36,697.098 1041.87,694.329C1043.94,690.513 1044.75,683.109 1043.14,674.176C1040.29,658.389 1042.73,642.135 1042.73,642.135Z" style="fill:rgb(40,90,63);"/>
                </g>
                <g transform="matrix(-2.21872,1.57286,-1.28968,-2.7059,3319.98,651.106)">
                    <path d="M1042.73,642.135C1042.73,642.135 1031.35,660.11 1028.37,675.933C1026.23,687.272 1031.03,697.848 1035.33,698.325C1038.25,698.647 1040.36,697.098 1041.87,694.329C1043.94,690.513 1044.75,683.109 1043.14,674.176C1040.29,658.389 1042.73,642.135 1042.73,642.135Z" style="fill:rgb(40,90,63);"/>
                </g>
                <g transform="matrix(-2.53355,-0.498526,0.408769,-3.08986,2566.77,3063.69)">
                    <path d="M1042.73,642.135C1042.73,642.135 1031.35,660.11 1028.37,675.933C1026.23,687.272 1031.03,697.848 1035.33,698.325C1038.25,698.647 1040.36,697.098 1041.87,694.329C1043.94,690.513 1044.75,683.109 1043.14,674.176C1040.29,658.389 1042.73,642.135 1042.73,642.135Z" style="fill:rgb(40,90,63);"/>
                </g>
            </g>
            <g transform="matrix(1.15378,0,0,1.15378,-1863.15,123.261)">
                <path d="M2258.52,960.34L2155.14,964.541C2131.68,965.673 2117.11,938.169 2121.79,917.182C2126.47,896.195 2151.36,877.495 2172.11,888.49L2258.52,928.526C2258.83,938.131 2258.18,953.455 2258.52,960.34ZM2417.05,932.012L2506.34,887.977C2527.4,877.589 2551.73,897.003 2555.8,918.117C2559.87,939.231 2544.51,966.3 2521.09,964.489L2432.37,960.34C2432.37,960.34 2425.53,947.344 2417.05,932.012ZM2390.7,860.232L2499.63,705.013C2528.59,668.095 2576.83,667.047 2608.42,698.908C2640.01,730.768 2647.55,792.833 2607.93,813.871L2410.09,918.897C2406.28,907.347 2396.06,876.436 2390.7,860.232ZM2258.52,910.604L2078.66,825.735C2038.08,806.589 2042.69,744.237 2072.75,710.923C2102.8,677.608 2164.35,666.617 2187.56,705.013L2258.52,807.353C2257.24,839.054 2258.06,885.513 2258.52,910.604ZM2388.95,547.421C2407.78,539.653 2430.41,537.903 2449.99,543.488C2493.14,555.797 2537.79,610.602 2513.54,648.35L2380.99,842.581C2374.25,820.316 2366.58,794.554 2363.51,768.081C2359.74,735.521 2361.93,671.461 2391.73,650.729C2416.24,633.685 2471.9,650.729 2471.9,650.729C2471.9,650.729 2454.37,592.227 2404.4,570.987C2392.87,566.086 2379.61,563.169 2364.44,563.413C2369.66,558.132 2376,553.678 2383.03,550.128C2386.54,548.358 2389.2,547.319 2388.95,547.421ZM2258.52,775.286L2172.11,648.35C2147.05,611.137 2186.34,558.899 2229.2,545.656C2264.56,534.734 2310.55,547.822 2325.75,577.916C2286.18,610.645 2265.31,692.985 2258.52,775.286Z" style="fill:rgb(40,90,63);"/>
            </g>
        </g>
    </g>
</svg>
